<?xml version="1.0" encoding="UTF-8"?>
<svg version="1.1" xmlns="http://www.w3.org/2000/svg" width="307" height="307">
<path d="M0 0 C0.1626793 5.95414718 -0.40751971 11.39564768 -1.49609375 17.2421875 C-1.64909439 18.09177032 -1.80209503 18.94135315 -1.95973206 19.81668091 C-2.28179077 21.59713631 -2.60719046 23.37699035 -2.93579102 25.15625 C-3.43965053 27.8866537 -3.93255996 30.61886806 -4.42382812 33.3515625 C-4.73894904 35.08605286 -5.05468233 36.8204321 -5.37109375 38.5546875 C-5.51904892 39.37234589 -5.66700409 40.19000427 -5.81944275 41.03244019 C-6.88360273 46.76720545 -6.88360273 46.76720545 -8 49 C-9.299375 48.835 -10.59875 48.67 -11.9375 48.5 C-25.83821989 47.00832088 -42.42826351 47.8661956 -53.9375 56.6875 C-61.19981729 63.58496403 -62.86326264 74.22406237 -63.55078125 83.765625 C-63.67900269 85.51794434 -63.67900269 85.51794434 -63.80981445 87.30566406 C-63.9039563 88.63936035 -63.9039563 88.63936035 -64 90 C-63.20042374 89.99777939 -62.40084747 89.99555878 -61.57704163 89.99327087 C-54.05740361 89.97326908 -46.53777841 89.95802645 -39.01812077 89.94818783 C-35.15179882 89.94295974 -31.28549879 89.93586346 -27.41918945 89.92456055 C-23.69096599 89.913729 -19.96276366 89.9077226 -16.23452568 89.90512276 C-14.80910344 89.90326899 -13.38368241 89.89964929 -11.95826912 89.89426994 C-9.96836592 89.88705607 -7.97844166 89.88659192 -5.98852539 89.88647461 C-4.85379288 89.884254 -3.71906036 89.88203339 -2.54994202 89.87974548 C-0 90 -0 90 1 91 C1.09813987 92.43740353 1.1279828 93.87956327 1.12939453 95.3203125 C1.13254669 96.23796387 1.13569885 97.15561523 1.13894653 98.10107422 C1.13591019 99.59791748 1.13591019 99.59791748 1.1328125 101.125 C1.13376923 102.14223145 1.13472595 103.15946289 1.13571167 104.20751953 C1.13639361 106.36295636 1.13453835 108.51839522 1.13037109 110.67382812 C1.12502305 113.98572371 1.13031563 117.29748367 1.13671875 120.609375 C1.13605797 122.69791697 1.13477681 124.78645885 1.1328125 126.875 C1.13483673 127.87289551 1.13686096 128.87079102 1.13894653 129.89892578 C1.13421829 131.27540283 1.13421829 131.27540283 1.12939453 132.6796875 C1.12859894 133.49163574 1.12780334 134.30358398 1.12698364 135.14013672 C1 137 1 137 0 138 C-21.12 138 -42.24 138 -64 138 C-64 191.13 -64 244.26 -64 299 C-82.81 299 -101.62 299 -121 299 C-121 245.87 -121 192.74 -121 138 C-130.9 138 -140.8 138 -151 138 C-152.60875 134.761875 -154.2175 131.52375 -155.875 128.1875 C-160.78717595 118.33280318 -165.85059486 108.56596317 -171.02954102 98.84912109 C-171.34979248 98.23891113 -171.67004395 97.62870117 -172 97 C-172.55675415 95.98607178 -172.55675415 95.98607178 -173.12475586 94.95166016 C-174 93 -174 93 -174 90 C-156.51 90 -139.02 90 -121 90 C-121 86.7 -121 83.4 -121 80 C-120.00924188 54.80643642 -112.96473748 34.69467842 -94.4609375 17.16796875 C-70.02271408 -5.39089858 -31.01494449 -7.25697865 0 0 Z " fill="#002A46" transform="translate(233,3)"/>
</svg>
